<svg xmlns="http://www.w3.org/2000/svg" viewBox="0 0 1600 760">
  <defs>
    <linearGradient id="sky" x1="0" x2="1">
      <stop offset="0" stop-color="#060707"/>
      <stop offset=".48" stop-color="#141818"/>
      <stop offset="1" stop-color="#050606"/>
    </linearGradient>
    <linearGradient id="car" x1="0" x2="1">
      <stop offset="0" stop-color="#181c1d"/>
      <stop offset=".42" stop-color="#cfd7d9"/>
      <stop offset=".65" stop-color="#6e7778"/>
      <stop offset="1" stop-color="#151819"/>
    </linearGradient>
    <filter id="glow">
      <feGaussianBlur stdDeviation="9" result="blur"/>
      <feMerge>
        <feMergeNode in="blur"/>
        <feMergeNode in="SourceGraphic"/>
      </feMerge>
    </filter>
    <filter id="soft">
      <feGaussianBlur stdDeviation="2"/>
    </filter>
  </defs>

  <rect width="1600" height="760" fill="url(#sky)"/>

  <g opacity=".42">
    <rect x="70" y="135" width="82" height="455" fill="#111"/>
    <rect x="186" y="60" width="120" height="540" fill="#151515"/>
    <rect x="340" y="105" width="72" height="470" fill="#101212"/>
    <rect x="1240" y="80" width="125" height="510" fill="#101212"/>
    <rect x="1395" y="150" width="80" height="420" fill="#141414"/>
    <rect x="1140" y="215" width="75" height="355" fill="#171717"/>
  </g>

  <g opacity=".36">
    <g fill="#8bff1a">
      <rect x="102" y="170" width="8" height="22"/><rect x="125" y="215" width="8" height="22"/>
      <rect x="218" y="105" width="9" height="25"/><rect x="251" y="154" width="9" height="25"/><rect x="278" y="235" width="9" height="25"/>
      <rect x="1265" y="120" width="10" height="28"/><rect x="1302" y="180" width="10" height="28"/><rect x="1330" y="270" width="10" height="28"/>
      <rect x="1418" y="210" width="8" height="22"/><rect x="1450" y="290" width="8" height="22"/>
    </g>
    <g fill="#efefef">
      <rect x="360" y="150" width="7" height="18"/><rect x="386" y="195" width="7" height="18"/>
      <rect x="1162" y="255" width="7" height="18"/><rect x="1188" y="305" width="7" height="18"/>
    </g>
  </g>

  <path d="M0 590 C260 548 350 634 560 588 C790 538 925 612 1160 568 C1370 530 1460 565 1600 540 L1600 760 L0 760 Z" fill="#050505" opacity=".86"/>
  <path d="M0 625 C310 590 480 650 750 610 C1035 568 1260 628 1600 575" stroke="#9cff00" stroke-width="3" opacity=".35" filter="url(#glow)"/>

  <g transform="translate(345 255)">
    <ellipse cx="475" cy="382" rx="455" ry="32" fill="#9cff00" opacity=".95" filter="url(#soft)"/>
    <ellipse cx="475" cy="382" rx="330" ry="16" fill="#9cff00" opacity=".8" filter="url(#glow)"/>

    <path d="M80 330 L160 240 C230 155 395 135 530 155 L625 95 C735 50 865 75 955 140 L1105 190 C1178 216 1235 260 1270 318 L1200 353 L160 360 Z"
          fill="url(#car)" stroke="#e7eeee" stroke-width="5"/>
    <path d="M530 157 L645 85 C720 62 842 78 930 137 L1010 177 L704 166 Z"
          fill="#1b2222" stroke="#9cff00" stroke-width="4" opacity=".95"/>
    <path d="M645 88 C715 65 832 78 912 132 L750 130 L700 162 L555 156 Z" fill="#6fffe2" opacity=".55"/>
    <path d="M1102 220 L1226 254 L1266 313 L1168 304 Z" fill="#ff2d22" filter="url(#glow)"/>
    <path d="M84 331 L170 295 L250 294 L220 348 L115 350 Z" fill="#bfe8ff" opacity=".9" filter="url(#glow)"/>

    <circle cx="280" cy="348" r="78" fill="#050505" stroke="#222" stroke-width="18"/>
    <circle cx="280" cy="348" r="45" fill="#151515" stroke="#9cff00" stroke-width="9" filter="url(#glow)"/>
    <circle cx="1010" cy="348" r="78" fill="#050505" stroke="#222" stroke-width="18"/>
    <circle cx="1010" cy="348" r="45" fill="#151515" stroke="#9cff00" stroke-width="9" filter="url(#glow)"/>

    <path d="M170 238 C360 178 460 175 620 186" stroke="#9cff00" stroke-width="5" opacity=".72" filter="url(#glow)"/>
    <path d="M690 170 C845 175 995 195 1125 235" stroke="#9cff00" stroke-width="4" opacity=".58" filter="url(#glow)"/>
  </g>

  <rect width="1600" height="760" fill="url(#sky)" opacity=".22"/>
</svg>