<svg xmlns="http://www.w3.org/2000/svg" viewBox="0 0 1600 900" preserveAspectRatio="xMidYMid slice">
  <defs>
    <linearGradient id="sky" x1="0" y1="0" x2="1" y2="1">
      <stop offset="0" stop-color="#050706"/>
      <stop offset=".45" stop-color="#08151d"/>
      <stop offset="1" stop-color="#020405"/>
    </linearGradient>
    <filter id="blur"><feGaussianBlur stdDeviation="2"/></filter>
  </defs>
  <rect width="1600" height="900" fill="url(#sky)"/>
  <g opacity=".75">
    <rect x="60" y="190" width="90" height="390" fill="#081013"/>
    <rect x="185" y="110" width="160" height="470" fill="#0a171b"/>
    <rect x="390" y="210" width="110" height="360" fill="#071115"/>
    <rect x="560" y="145" width="230" height="435" fill="#09181d"/>
    <rect x="850" y="180" width="150" height="400" fill="#071013"/>
    <rect x="1050" y="95" width="240" height="485" fill="#091820"/>
    <rect x="1330" y="155" width="190" height="425" fill="#071114"/>
  </g>
  <g fill="#9cff00" opacity=".24" filter="url(#blur)">
    <circle cx="280" cy="250" r="6"/><circle cx="610" cy="280" r="5"/><circle cx="1180" cy="220" r="8"/>
  </g>
  <g fill="#5be9ff" opacity=".25">
    <rect x="215" y="155" width="8" height="8"/><rect x="250" y="155" width="8" height="8"/><rect x="285" y="155" width="8" height="8"/>
    <rect x="600" y="190" width="9" height="9"/><rect x="640" y="190" width="9" height="9"/><rect x="680" y="190" width="9" height="9"/>
    <rect x="1100" y="145" width="8" height="8"/><rect x="1140" y="145" width="8" height="8"/><rect x="1180" y="145" width="8" height="8"/>
  </g>
  <path d="M0 585 C 360 535, 660 645, 1600 585 L1600 900 L0 900 Z" fill="#030706"/>
  <path d="M0 680 C 380 605, 720 775, 1600 655" fill="none" stroke="#0aff9d" stroke-width="2" opacity=".28"/>
  <path d="M0 710 C 420 635, 760 805, 1600 690" fill="none" stroke="#9cff00" stroke-width="2" opacity=".18"/>
</svg>
