<svg xmlns="http://www.w3.org/2000/svg" viewBox="0 0 800 500">
  <defs>
    <linearGradient id="g" x1="0" y1="0" x2="1" y2="1"><stop offset="0" stop-color="#051213"/><stop offset="1" stop-color="#010303"/></linearGradient>
  </defs>
  <rect width="800" height="500" fill="url(#g)"/>
  <g opacity=".5" fill="#0d2229">
    <rect x="30" y="80" width="110" height="300"/><rect x="180" y="30" width="160" height="360"/><rect x="390" y="120" width="130" height="270"/><rect x="580" y="60" width="160" height="330"/>
  </g>
  <path d="M-40 405 C190 250 318 508 530 330 C635 243 738 260 850 310" fill="none" stroke="#6b7370" stroke-width="70" stroke-linecap="round"/>
  <path d="M-40 405 C190 250 318 508 530 330 C635 243 738 260 850 310" fill="none" stroke="#0b0e0d" stroke-width="48" stroke-linecap="round"/>
  <path d="M-20 405 C190 250 318 508 530 330 C635 243 738 260 850 310" fill="none" stroke="#9cff00" stroke-width="4" stroke-dasharray="26 18" opacity=".8"/>
  <text x="55" y="95" fill="#9cff00" font-family="Arial" font-weight="900" font-size="42" font-style="italic">RESORT LOOP</text>
  <text x="55" y="135" fill="#ffffff" font-family="Arial" font-weight="800" font-size="18">WEEK 01 / CIRCUIT</text>
</svg>
